<?xml version="1.0" encoding="UTF-8" standalone="no"?>
<svg
   xmlns:dc="http://purl.org/dc/elements/1.1/"
   xmlns:cc="http://creativecommons.org/ns#"
   xmlns:rdf="http://www.w3.org/1999/02/22-rdf-syntax-ns#"
   xmlns:svg="http://www.w3.org/2000/svg"
   xmlns="http://www.w3.org/2000/svg"
   xmlns:sodipodi="http://sodipodi.sourceforge.net/DTD/sodipodi-0.dtd"
   xmlns:inkscape="http://www.inkscape.org/namespaces/inkscape"
   height="16"
   width="16"
   version="1"
   id="svg6"
   sodipodi:docname="info-white.svg"
   inkscape:version="0.92.2 2405546, 2018-03-11">
  <metadata
     id="metadata12">
    <rdf:RDF>
      <cc:Work
         rdf:about="">
        <dc:format>image/svg+xml</dc:format>
        <dc:type
           rdf:resource="http://purl.org/dc/dcmitype/StillImage" />
      </cc:Work>
    </rdf:RDF>
  </metadata>
  <defs
     id="defs10" />
  <sodipodi:namedview
     pagecolor="#ffffff"
     bordercolor="#666666"
     borderopacity="1"
     objecttolerance="10"
     gridtolerance="10"
     guidetolerance="10"
     inkscape:pageopacity="0"
     inkscape:pageshadow="2"
     inkscape:window-width="1096"
     inkscape:window-height="729"
     id="namedview8"
     showgrid="false"
     inkscape:zoom="14.75"
     inkscape:cx="-3.7966102"
     inkscape:cy="8"
     inkscape:window-x="532"
     inkscape:window-y="80"
     inkscape:window-maximized="0"
     inkscape:current-layer="svg6" />
  <path
     color="#000"
     fill="none"
     d="M-62.897-32.993h163.31v97.986h-163.31z"
     id="path2" />
  <path
     opacity=".5"
     d="M5 7.474c.155.382.325.69.644.246.407-.268 1.76-1.427 1.662-.342-.368 2.017-.834 4.017-1.17 6.04-.393 1.114.634 2.067 1.637 1.31 1.078-.502 1.99-1.287 2.927-2.01-.144-.323-.25-.79-.596-.347-.468.24-1.47 1.318-1.696.472.315-2.18.975-4.295 1.365-6.462.397-1.005-.364-2.223-1.4-1.363C7.117 5.634 6.083 6.6 5 7.474zM9.46.005C8.15-.017 7.553 2.147 8.815 2.68c1.023.378 2.077-.714 1.79-1.75-.098-.542-.598-.97-1.147-.93z"
     id="path4"
     style="fill:#ffffff;opacity:1" />
</svg>
