<?xml version="1.0" encoding="UTF-8" standalone="no"?>
<!-- Generator: Adobe Illustrator 18.0.0, SVG Export Plug-In . SVG Version: 6.00 Build 0)  -->

<svg
   xmlns:dc="http://purl.org/dc/elements/1.1/"
   xmlns:cc="http://creativecommons.org/ns#"
   xmlns:rdf="http://www.w3.org/1999/02/22-rdf-syntax-ns#"
   xmlns:svg="http://www.w3.org/2000/svg"
   xmlns="http://www.w3.org/2000/svg"
   xmlns:sodipodi="http://sodipodi.sourceforge.net/DTD/sodipodi-0.dtd"
   xmlns:inkscape="http://www.inkscape.org/namespaces/inkscape"
   version="1.1"
   id="Capa_1"
   x="0px"
   y="0px"
   viewBox="0 0 12.962964 13.196974"
   xml:space="preserve"
   sodipodi:docname="on-off-power-button.svg"
   width="12.962964"
   height="13.196974"
   inkscape:version="0.92.1 r"><metadata
     id="metadata43"><rdf:RDF><cc:Work
         rdf:about=""><dc:format>image/svg+xml</dc:format><dc:type
           rdf:resource="http://purl.org/dc/dcmitype/StillImage" /><dc:title></dc:title></cc:Work></rdf:RDF></metadata><defs
     id="defs41" /><sodipodi:namedview
     pagecolor="#ffffff"
     bordercolor="#666666"
     borderopacity="1"
     objecttolerance="10"
     gridtolerance="10"
     guidetolerance="10"
     inkscape:pageopacity="0"
     inkscape:pageshadow="2"
     inkscape:window-width="1475"
     inkscape:window-height="943"
     id="namedview39"
     showgrid="false"
     inkscape:zoom="15.204"
     inkscape:cx="8.064219"
     inkscape:cy="2.2776612"
     inkscape:window-x="2112"
     inkscape:window-y="99"
     inkscape:window-maximized="0"
     inkscape:current-layer="Capa_1" /><g
     id="g6"
     transform="matrix(0.03566737,0,0,0.03566737,0.21779251,0.33479739)"
     style="fill:#ffffff"><path
       d="m 258.915,27.652 c -1.161,-0.642 -2.53,-0.794 -3.803,-0.428 -1.275,0.367 -2.35,1.226 -2.992,2.387 l -21.758,39.39 c -1.335,2.417 -0.458,5.459 1.96,6.794 37.498,20.713 60.793,60.155 60.793,102.933 0,64.79 -52.71,117.5 -117.5,117.5 -64.79,0 -117.5,-52.71 -117.5,-117.5 0,-42.778 23.294,-82.22 60.792,-102.933 2.418,-1.335 3.294,-4.377 1.96,-6.794 L 99.109,29.611 c -0.642,-1.161 -1.717,-2.02 -2.992,-2.387 -1.272,-0.368 -2.642,-0.214 -3.803,0.428 -55.02,30.391 -89.2,88.28 -89.2,151.076 0,95.117 77.383,172.5 172.5,172.5 95.117,0 172.5,-77.383 172.5,-172.5 0,-62.795 -34.179,-120.685 -89.199,-151.076 z"
       id="path2"
       inkscape:connector-curvature="0"
       style="fill:#ffffff" /><path
       d="m 153.114,181.16 h 45 c 2.761,0 5,-2.239 5,-5 V 5 c 0,-2.761 -2.239,-5 -5,-5 h -45 c -2.761,0 -5,2.239 -5,5 v 171.16 c 0,2.761 2.239,5 5,5 z"
       id="path4"
       inkscape:connector-curvature="0"
       style="fill:#ffffff" /></g><g
     id="g8"
     transform="translate(-334.95721,-338.03103)" /><g
     id="g10"
     transform="translate(-334.95721,-338.03103)" /><g
     id="g12"
     transform="translate(-334.95721,-338.03103)" /><g
     id="g14"
     transform="translate(-334.95721,-338.03103)" /><g
     id="g16"
     transform="translate(-334.95721,-338.03103)" /><g
     id="g18"
     transform="translate(-334.95721,-338.03103)" /><g
     id="g20"
     transform="translate(-334.95721,-338.03103)" /><g
     id="g22"
     transform="translate(-334.95721,-338.03103)" /><g
     id="g24"
     transform="translate(-334.95721,-338.03103)" /><g
     id="g26"
     transform="translate(-334.95721,-338.03103)" /><g
     id="g28"
     transform="translate(-334.95721,-338.03103)" /><g
     id="g30"
     transform="translate(-334.95721,-338.03103)" /><g
     id="g32"
     transform="translate(-334.95721,-338.03103)" /><g
     id="g34"
     transform="translate(-334.95721,-338.03103)" /><g
     id="g36"
     transform="translate(-334.95721,-338.03103)" /></svg>