<?xml version="1.0" encoding="UTF-8" standalone="no"?>
<svg
   xmlns:dc="http://purl.org/dc/elements/1.1/"
   xmlns:cc="http://creativecommons.org/ns#"
   xmlns:rdf="http://www.w3.org/1999/02/22-rdf-syntax-ns#"
   xmlns:svg="http://www.w3.org/2000/svg"
   xmlns="http://www.w3.org/2000/svg"
   xmlns:sodipodi="http://sodipodi.sourceforge.net/DTD/sodipodi-0.dtd"
   xmlns:inkscape="http://www.inkscape.org/namespaces/inkscape"
   height="209.76869"
   width="209.76869"
   viewBox="0 0 209.7687 209.7687"
   version="1.1"
   id="svg6"
   sodipodi:docname="ncp-logo.svg"
   inkscape:version="0.92.2 5c3e80d, 2017-08-06"
   inkscape:export-filename="Nextcloud Pi.png"
   inkscape:export-xdpi="320"
   inkscape:export-ydpi="320">
  <metadata
     id="metadata12">
    <rdf:RDF>
      <cc:Work
         rdf:about="">
        <dc:format>image/svg+xml</dc:format>
        <dc:type
           rdf:resource="http://purl.org/dc/dcmitype/StillImage" />
        <dc:title />
      </cc:Work>
    </rdf:RDF>
  </metadata>
  <defs
     id="defs10" />
  <sodipodi:namedview
     pagecolor="#ffffff"
     bordercolor="#666666"
     borderopacity="1"
     objecttolerance="10"
     gridtolerance="10"
     guidetolerance="10"
     inkscape:pageopacity="0"
     inkscape:pageshadow="2"
     inkscape:window-width="1920"
     inkscape:window-height="1079"
     id="namedview8"
     showgrid="false"
     inkscape:zoom="3.6875"
     inkscape:cx="32.129761"
     inkscape:cy="107.70841"
     inkscape:window-x="1920"
     inkscape:window-y="0"
     inkscape:window-maximized="1"
     inkscape:current-layer="svg6"
     fit-margin-top="0"
     fit-margin-left="0"
     fit-margin-right="0"
     fit-margin-bottom="0" />
  <rect
     id="rect4527"
     width="209.76869"
     height="209.76869"
     ry="139.84575"
     rx="139.84575"
     x="0"
     y="0"
     style="fill:#0082c9;stroke-width:1.39845788" />
  <path
     style="color:#000000;text-indent:0;text-decoration:none;text-decoration-line:none;text-decoration-style:solid;text-decoration-color:#000000;text-transform:none;white-space:normal;isolation:auto;mix-blend-mode:normal;fill:#ffffff;stroke-width:1.39845788"
     d="m 72.419356,38.277316 c -0.902341,0.02882 -1.872445,0.362312 -2.974453,1.231842 -2.702299,-1.042068 -5.323934,-1.40312 -7.666941,0.718351 -3.618031,-0.469301 -4.793174,0.497312 -5.683965,1.62789 -0.794228,-0.01627 -5.942143,-0.815445 -8.303339,2.70678 -5.933838,-0.702148 -7.808894,3.489783 -5.683966,7.399265 -1.211908,1.876136 -2.468116,3.72977 0.366001,7.306395 -1.002569,1.992041 -0.381438,4.153097 1.980236,6.768317 -0.623281,2.800362 0.602151,4.775121 2.799647,6.31491 -0.410982,3.832128 3.515012,6.061747 4.687019,6.855725 0.450048,2.232879 1.386303,4.338675 5.869698,5.503693 0.739382,3.327597 3.435276,3.903943 6.04451,4.602342 0.752497,2.116876 4.637853,3.606036 12.332102,2.766869 C 71.89791,96.592863 68.678198,102.14058 66.962087,108.304 63.046405,99.68949 54.430379,93.58741 44.41742,93.58741 c -13.62797,0.0031 -24.839013,11.20825 -24.839013,24.83902 -0.0028,13.63495 11.205513,24.84168 24.836283,24.84447 10.015756,-0.002 18.628984,-6.11027 22.544668,-14.72477 4.483455,16.10743 19.168575,28.08114 36.654892,28.08114 17.38842,0.002 31.9958,-11.84176 36.57295,-27.81074 3.97861,8.45508 12.4648,14.45297 22.36168,14.45437 13.63496,0 24.84859,-11.21085 24.84719,-24.84721 0,-13.63495 -11.2109,-24.841807 -24.84447,-24.839005 -9.89829,0.0031 -18.38991,5.999292 -22.36713,14.454365 -1.74434,-6.08432 -4.95061,-11.562407 -9.20469,-16.022178 7.96861,0.543113 13.55096,-0.696433 14.14572,-2.70677 2.60923,-0.698264 5.30518,-1.274601 6.04452,-4.602355 4.48338,-1.165204 5.4198,-3.270983 5.86968,-5.503691 1.17221,-0.793795 5.09796,-3.020862 4.68702,-6.85299 2.19743,-1.539944 3.42297,-3.517526 2.79964,-6.317643 2.36168,-2.61522 2.98293,-4.776152 1.98026,-6.768321 2.83453,-3.575123 1.57617,-5.427519 0.36599,-7.303658 2.12343,-3.909482 0.24943,-8.101413 -5.6867,-7.399265 -2.36045,-3.522225 -7.50735,-2.723245 -8.30332,-2.70678 -0.89079,-1.130578 -2.06595,-2.09992 -5.68399,-1.630619 -2.343,-2.121476 -4.96191,-1.757715 -7.6642,-0.715622 -3.20884,-2.532133 -5.33446,-0.502505 -7.75978,0.264928 -3.88503,-1.269485 -4.77209,0.469126 -6.68093,1.177215 -4.23686,-0.895301 -5.52385,1.053733 -7.55496,3.111022 l -2.36262,-0.04644 c -6.39047,3.765995 -9.56522,11.43266 -10.69057,15.374826 -1.12585,-3.942918 -4.29313,-11.609589 -10.682346,-15.374844 l -2.362629,0.04644 C 89.406976,42.00505 88.119738,40.056042 83.882886,40.951316 81.974054,40.243229 81.086757,38.504618 77.199242,39.774101 75.608233,39.270716 74.14482,38.225024 72.422086,38.277316 Z m 64.296284,4.523134 c -0.88726,1.09707 -2.12876,2.167587 -0.81394,3.427861 1.81225,-1.148864 3.63608,-2.294444 7.94008,-3.111025 -0.96993,1.097716 -2.97477,2.193586 -1.75901,3.291298 2.27537,-0.882304 4.79362,-1.520903 7.57952,-1.892838 -1.33404,1.113859 -2.44813,2.204554 -1.35476,3.067323 2.43507,-0.760474 5.78994,-1.78668 9.06814,-0.904084 l -2.07584,2.122267 c -0.23035,0.283676 4.85443,0.220542 8.21048,0.270426 -1.22476,1.727174 -2.472,3.394794 -3.20117,6.361344 0.33263,0.342121 1.99364,0.152067 3.56171,0 -1.60791,3.436486 -4.39845,4.303553 -5.05029,5.774101 0.98235,0.755022 2.3453,0.557088 3.83484,0.04353 -1.15753,2.421093 -3.58546,4.079737 -5.5037,6.044506 0.48507,0.349415 1.33158,0.559005 3.33772,0.316835 -1.77235,1.912327 -3.91385,3.661144 -6.45147,5.233295 0.44936,0.527168 1.9943,0.50572 3.42786,0.540808 -2.2986,2.283859 -5.25755,3.46872 -8.03022,4.962888 1.38204,0.958537 2.36957,0.73409 3.42785,0.721076 -1.96098,1.635509 -5.29519,2.487021 -8.39073,3.474304 0.58871,0.928805 1.17778,1.181403 2.43638,1.442153 -3.27645,1.840705 -7.96853,0.998623 -9.2921,1.939268 0.31951,0.925196 1.21979,1.529426 2.2998,2.032137 -5.27486,0.310904 -19.70027,-0.194633 -22.46545,-11.277794 5.399,-6.022748 15.25385,-13.091461 32.20274,-21.831789 -13.18732,4.481315 -25.08758,10.452367 -35.04609,18.671596 -11.70985,-5.534853 -3.63692,-19.493331 2.07584,-25.035673 0.28966,1.463509 0.61951,2.39026 0.9942,2.663085 1.86018,-2.024108 3.37957,-4.099363 5.77411,-6.047248 0.008,1.144053 -0.57068,2.386299 0.85493,3.294026 1.28378,-1.753373 3.0193,-3.317928 5.32342,-4.646043 -1.1098,1.942914 -0.18972,2.532497 0.407,3.337723 1.75984,-1.531808 3.43289,-3.083572 6.67816,-4.285509 z m -64.066852,0.0025 c 3.245259,1.201937 4.918324,2.753704 6.678181,4.285508 0.59665,-0.805224 1.514027,-1.397545 0.404255,-3.340454 2.30411,1.328115 4.03964,2.89267 5.323421,4.646046 1.425601,-0.90773 0.849856,-2.147243 0.857654,-3.291292 2.394527,1.947875 3.913926,4.020398 5.774092,6.044509 0.374708,-0.272844 0.701814,-1.199571 0.991483,-2.663083 5.712762,5.542341 13.785686,19.503549 2.075835,25.038407 -9.9596,-8.214063 -21.852679,-14.185441 -35.032457,-18.666139 16.940458,8.735537 26.791906,15.804117 32.189114,21.823597 -0.958154,3.84038 -3.329689,6.389311 -6.222043,8.095762 -0.276224,0.149892 -0.541862,0.316003 -0.813947,0.472506 -5.349893,2.7755 -12.153285,2.902612 -15.42947,2.709513 1.080029,-0.502711 1.980274,-1.106942 2.299804,-2.032145 -1.323583,-0.940633 -6.01565,-0.09857 -9.292089,-1.939259 1.258613,-0.260788 1.847653,-0.513353 2.43637,-1.442154 -3.095538,-0.987283 -6.429769,-1.838798 -8.390745,-3.474304 1.058284,0.01256 2.045821,0.237466 3.427862,-0.721076 -2.772671,-1.494175 -5.731661,-2.67903 -8.030207,-4.962888 1.433542,-0.03521 2.978482,-0.01354 3.427856,-0.540803 -2.53761,-1.572157 -4.67914,-3.320974 -6.451477,-5.233298 2.006142,0.24217 2.855387,0.03281 3.340457,-0.316832 -1.918262,-1.964769 -4.346179,-3.623416 -5.503695,-6.044508 1.489524,0.513389 2.85247,0.711326 3.83483,-0.04357 -0.651834,-1.470546 -3.445114,-2.337612 -5.053017,-5.774101 1.568088,0.152068 3.23183,0.342127 3.564428,0 -0.72784,-2.965294 -1.979007,-4.634169 -3.203893,-6.361343 3.356035,-0.04988 8.440778,0.01334 8.21048,-0.270425 l -2.073112,-2.119688 c 3.278195,-0.882603 6.633061,0.140874 9.068127,0.901351 1.093371,-0.862765 -0.02054,-1.953464 -1.354754,-3.067323 2.785895,0.371937 5.304158,1.013263 7.579531,1.895568 1.21576,-1.097714 -0.789083,-2.196312 -1.758998,-3.294028 4.303982,0.816584 6.125081,1.964896 7.93734,3.113758 1.314813,-1.260275 0.0761,-2.330795 -0.811216,-3.427861 z m 30.962732,52.005148 h 0.003 a 23.508076,23.508076 0 0 1 23.61795,23.618142 c 0,13.1315 -10.48934,23.6209 -23.62085,23.61811 a 23.508076,23.508076 0 0 1 -23.6156,-23.61793 c 0,-13.1306 10.489335,-23.61523 23.61537,-23.618092 z M 44.41469,108.16721 h 0.0025 c 5.751936,0.001 10.25487,4.50534 10.256272,10.25627 0,5.75326 -4.501616,10.26446 -10.256272,10.26446 -5.751853,0 -10.257667,-4.5112 -10.256267,-10.26446 0,-5.75093 4.503003,-10.25483 10.253536,-10.25627 z m 118.13419,0 c 5.75323,0 10.26173,4.50162 10.26173,10.25627 0,5.75466 -4.50709,10.26446 -10.26173,10.26446 -5.75328,0 -10.25767,-4.5112 -10.25629,-10.26446 0,-5.75186 4.50441,-10.25627 10.25629,-10.25627 z"
     id="path4529"
     inkscape:connector-curvature="0" />
</svg>
